<svg xmlns="http://www.w3.org/2000/svg" viewBox="0 0 512 512" width="512" height="512">
  <defs>
    <linearGradient id="snow-sky" x1="0" y1="0" x2="0" y2="512">
      <stop offset="0%" stop-color="#E0E0E0" />
      <stop offset="100%" stop-color="#F5F5F5" />
    </linearGradient>
    <radialGradient id="snow-cloud" cx="0.5" cy="0.5" r="0.5">
      <stop offset="0%" stop-color="#FFFFFF" />
      <stop offset="50%" stop-color="#F0F0F0" />
      <stop offset="100%" stop-color="#E0E0E0" />
    </radialGradient>
  </defs>
  
  <!-- Snowy sky -->
  <rect width="512" height="512" fill="url(#snow-sky)"/>
  
  <!-- Snow clouds -->
  <ellipse cx="200" cy="160" rx="100" ry="60" fill="url(#snow-cloud)"/>
  <ellipse cx="300" cy="150" rx="110" ry="65" fill="url(#snow-cloud)"/>
  <ellipse cx="320" cy="180" rx="90" ry="55" fill="url(#snow-cloud)"/>
  
  <!-- Snowflakes with varying sizes -->
  <g opacity="0.9">
    <circle cx="120" cy="250" r="3" fill="#FFFFFF"/>
    <path d="M 120 250 L 120 245 M 120 250 L 115 250 M 120 250 L 125 250 M 120 250 L 118 248 L 122 248" stroke="#FFFFFF" stroke-width="1"/>
    <circle cx="200" cy="280" r="2.5" fill="#FFFFFF"/>
    <path d="M 200 280 L 200 276 M 200 280 L 197 280 M 200 280 L 203 280 M 200 280 L 198.5 278.5 L 201.5 278.5" stroke="#FFFFFF" stroke-width="1"/>
    <circle cx="280" cy="260" r="3" fill="#FFFFFF"/>
    <path d="M 280 260 L 280 256 M 280 260 L 277 260 M 280 260 L 283 260 M 280 260 L 278.5 258.5 L 281.5 258.5" stroke="#FFFFFF" stroke-width="1"/>
    <circle cx="350" cy="300" r="2.5" fill="#FFFFFF"/>
    <path d="M 350 300 L 350 296 M 350 300 L 347 300 M 350 300 L 353 300" stroke="#FFFFFF" stroke-width="1"/>
    <circle cx="180" cy="320" r="3" fill="#FFFFFF"/>
    <path d="M 180 320 L 180 316 M 180 320 L 177 320 M 180 320 L 183 320" stroke="#FFFFFF" stroke-width="1"/>
    <circle cx="300" cy="340" r="2.5" fill="#FFFFFF"/>
    <path d="M 300 340 L 300 336 M 300 340 L 297 340 M 300 340 L 303 340" stroke="#FFFFFF" stroke-width="1"/>
  </g>
</svg>
