<svg xmlns="http://www.w3.org/2000/svg" viewBox="0 0 64 64">
  <!-- Outer leaves: Spiky/Wavy -->
  <path d="M32 60c-15 0-28-12-28-28 0-8 3-15 8-20 2-2 4-2 6 0 1 1 2 3 2 4 1-1 3-2 4-2s3 1 4 2c0-1 2-2 4-2s4 1 5 3c2-2 4-2 6 0 5 5 8 12 8 20 0 16-13 28-28 28z" fill="#2ecc71"/>
  <!-- Inner hearts: Lighter/Yellowish -->
  <path d="M32 50c-8 0-14-6-14-14 0-4 2-8 5-10 1-1 3 0 4 2 1 2 2 3 5 3s4-1 5-3c1-2 3-3 4-2 3 2 5 6 5 10 0 8-6 14-14 14z" fill="#f1c40f" opacity="0.6"/>
  <!-- Detail marks -->
  <path d="M32 56c-2 0-4-3-4-8s2-8 4-8 4 3 4 8-2 8-4 8z" fill="#27ae60" opacity="0.3"/>
</svg>
