<svg xmlns="http://www.w3.org/2000/svg" viewBox="0 0 64 64">
  <path d="M32 60c-12 0-22-10-22-26 0-12 8-24 16-28 2-1 4-2 6-2s4 1 6 2c8 4 16 16 16 28 0 16-10 26-22 26z" fill="#e74c3c"/>
  <path d="M32 4c-3 0-5 2-6 5 2 2 4 2 6 0 2 2 4 2 6 0-1-3-3-5-6-5z" fill="#2ecc71"/>
  <!-- Seeds -->
  <circle cx="24" cy="24" r="1.5" fill="#c0392b" opacity="0.6"/>
  <circle cx="40" cy="24" r="1.5" fill="#c0392b" opacity="0.6"/>
  <circle cx="32" cy="34" r="1.5" fill="#c0392b" opacity="0.6"/>
  <circle cx="24" cy="44" r="1.5" fill="#c0392b" opacity="0.6"/>
  <circle cx="40" cy="44" r="1.5" fill="#c0392b" opacity="0.6"/>
  <circle cx="32" cy="52" r="1.5" fill="#c0392b" opacity="0.6"/>
</svg>
