<svg xmlns="http://www.w3.org/2000/svg" viewBox="0 0 64 64">
  <path d="M32 6c18 0 30 16 30 28 0 16-12 26-30 26S2 50 2 34C2 22 14 6 32 6z" fill="#2ecc71"/>
  <!-- Stripes -->
  <path d="M32 6c2 0 4 6 6 12s2 14 2 16-2 14-4 16-4 8-4 8-2-2-4-8-4-10-4-16 0-10 2-16 4-12 6-12z" fill="#27ae60"/>
  <path d="M54 20c2 4 4 10 4 14 0 10-6 18-12 22 1-3 2-6 2-10 0-8-4-16-8-22 4-2 10-4 14-4z" fill="#27ae60" opacity="0.8"/>
  <path d="M10 20c-2 4-4 10-4 14 0 10 6 18 12 22-1-3-2-6-2-10 0-8 4-16 8-22-4-2-10-4-14-4z" fill="#27ae60" opacity="0.8"/>
</svg>
