<svg xmlns="http://www.w3.org/2000/svg" viewBox="0 0 64 64">
  <path d="M32 6c-8 0-16 4-20 12-4 8-4 18 0 26 4 8 12 12 20 12s16-4 20-12c4-8 4-18 0-26-4-8-12-12-20-12z" fill="#90be6d"/>
  <path d="M32 6c-6 0-12 4-14 10s-2 14 0 20c2 6 8 10 14 10s12-4 14-10 2-14 0-20c-2-6-8-10-14-10z" fill="#aacc00"/>
  <!-- Scales pattern -->
  <circle cx="24" cy="20" r="4" fill="#7cb518" opacity="0.3"/>
  <circle cx="40" cy="20" r="4" fill="#7cb518" opacity="0.3"/>
  <circle cx="32" cy="28" r="4" fill="#7cb518" opacity="0.3"/>
  <circle cx="24" cy="36" r="4" fill="#7cb518" opacity="0.3"/>
  <circle cx="40" cy="36" r="4" fill="#7cb518" opacity="0.3"/>
</svg>
