<svg xmlns="http://www.w3.org/2000/svg" viewBox="0 0 64 64">
  <path d="M32 6c-2 0-4 2-4 4 0 4-4 8-8 8-2 0-4 2-4 4s2 4 4 4h2c-2 2-2 6 0 8s6 2 8 0c2 2 2 6 0 8s6 2 8 0c2 2 2 6 0 8s6 2 8 0c2-2 2-6 0-8s-6-2-8 0c-2-2-2-6 0-8s-6-2-8 0c-2-2-2-6 0-8h2c2 0 4-2 4-4s-2-4-4-4c-4 0-8-4-8-8 0-2-2-4-4-4z" fill="#8e44ad"/>
  <circle cx="24" cy="24" r="6" fill="#9b59b6"/>
  <circle cx="32" cy="24" r="6" fill="#9b59b6"/>
  <circle cx="40" cy="24" r="6" fill="#9b59b6"/>
  <circle cx="20" cy="34" r="6" fill="#9b59b6"/>
  <circle cx="28" cy="34" r="6" fill="#9b59b6"/>
  <circle cx="36" cy="34" r="6" fill="#9b59b6"/>
  <circle cx="44" cy="34" r="6" fill="#9b59b6"/>
  <circle cx="24" cy="44" r="6" fill="#9b59b6"/>
  <circle cx="32" cy="44" r="6" fill="#9b59b6"/>
  <circle cx="40" cy="44" r="6" fill="#9b59b6"/>
  <circle cx="28" cy="54" r="6" fill="#9b59b6"/>
  <circle cx="36" cy="54" r="6" fill="#9b59b6"/>
  <circle cx="32" cy="62" r="6" fill="#9b59b6"/>
  <path d="M32 6c0-4 4-6 8-6 3 0 5 2 5 5s-3 5-6 5c-3 0-5-2-5-5z" fill="#27ae60"/>
</svg>
