<svg width="160" height="160" viewBox="0 0 160 160" fill="none" xmlns="http://www.w3.org/2000/svg">
<path d="M12 90c6 0 20-3 34-10l27-13c6-3 9-6 10-10 2-6-2-13-8-15-4-1-10 0-15 2l-29 14c-6 3-14 4-22 4l-6 1c-1 0-2 1-2 2v9c0 2 2 3 4 2l7-2Z" fill="#9bd1ff"/>
<path d="M38 100c8 3 18 5 28 6l17 2c7 1 13-3 15-9 2-6-1-13-7-15l-12-4c-3-1-6-1-9 1l-25 14c-3 2-6 4-7 5Z" fill="#60a5fa"/>
<path d="M126 36c-3 0-5 1-7 2l-34 23c-3 2-3 7 1 8l14 6c2 1 4 3 5 5l21 42c2 4 9 3 10-1l3-15c1-4 0-8-2-12l-22-40c-1-2 0-4 2-5l11-7c3-2 3-6 0-8l-2-1c0-1-1-1-2-1Z" fill="#1d4ed8"/>
<circle cx="121" cy="118" r="9" fill="#0ea5e9"/>
<path d="M40 104c4 0 8 2 10 5l10 13c2 3 0 7-3 7-2 0-5-1-7-3l-13-12c-4-3-6-8-7-13 0-2 2-4 4-4h6Z" fill="#93c5fd"/>
</svg>
