<svg xmlns="http://www.w3.org/2000/svg" viewBox="0 0 512 512" width="512" height="512">
  <defs>
    <radialGradient id="artichoke-head" cx="0.5" cy="0.4" r="0.7">
      <stop offset="0%" stop-color="#8FBC8F" />
      <stop offset="30%" stop-color="#6B8E23" />
      <stop offset="70%" stop-color="#556B2F" />
      <stop offset="100%" stop-color="#3E5F3E" />
    </radialGradient>
    <radialGradient id="artichoke-petal" cx="0.5" cy="0.5" r="0.6">
      <stop offset="0%" stop-color="#9ACD32" />
      <stop offset="50%" stop-color="#6B8E23" />
      <stop offset="100%" stop-color="#556B2F" />
    </radialGradient>
    <linearGradient id="artichoke-stem" x1="0" y1="0" x2="0" y2="1">
      <stop offset="0%" stop-color="#8FBC8F" />
      <stop offset="50%" stop-color="#6B8E23" />
      <stop offset="100%" stop-color="#556B2F" />
    </linearGradient>
    <filter id="artichoke-shadow">
      <feGaussianBlur stdDeviation="4" result="coloredBlur"/>
      <feOffset in="coloredBlur" dx="3" dy="5"/>
    </filter>
  </defs>
  
  <!-- Artichoke shadow -->
  <ellipse cx="256" cy="480" rx="100" ry="30" fill="#000000" opacity="0.15" filter="url(#artichoke-shadow)"/>
  
  <!-- Artichoke stem -->
  <path d="M 256 200 L 246 440 L 266 440 Z" 
        fill="url(#artichoke-stem)" 
        stroke="#556B2F" 
        stroke-width="2"
        filter="url(#artichoke-shadow)"/>
  
  <!-- Artichoke head (base) -->
  <ellipse cx="256" cy="200" rx="120" ry="80" fill="url(#artichoke-head)" stroke="#3E5F3E" stroke-width="2" filter="url(#artichoke-shadow)"/>
  
  <!-- Artichoke outer petals (spiky leaves) -->
  <path d="M 256 140 Q 200 120 180 180 Q 175 200 190 210 Q 210 220 230 200 Q 250 180 256 140 Z" 
        fill="url(#artichoke-petal)" 
        stroke="#556B2F" 
        stroke-width="1"/>
  <path d="M 256 140 Q 280 130 300 180 Q 305 200 290 210 Q 270 220 250 200 Q 240 180 256 140 Z" 
        fill="url(#artichoke-petal)" 
        stroke="#556B2F" 
        stroke-width="1"/>
  <path d="M 256 140 Q 230 110 220 170 Q 218 190 230 195 Q 245 200 250 175 Q 255 150 256 140 Z" 
        fill="url(#artichoke-petal)" 
        stroke="#556B2F" 
        stroke-width="1"/>
  <path d="M 256 140 Q 282 110 292 170 Q 294 190 282 195 Q 267 200 262 175 Q 257 150 256 140 Z" 
        fill="url(#artichoke-petal)" 
        stroke="#556B2F" 
        stroke-width="1"/>
  <path d="M 256 140 Q 240 100 235 160 Q 234 175 242 182 Q 252 190 248 165 Q 246 145 256 140 Z" 
        fill="url(#artichoke-petal)" 
        stroke="#556B2F" 
        stroke-width="1"/>
  <path d="M 256 140 Q 272 100 277 160 Q 278 175 270 182 Q 260 190 264 165 Q 266 145 256 140 Z" 
        fill="url(#artichoke-petal)" 
        stroke="#556B2F" 
        stroke-width="1"/>
  
  <!-- Artichoke inner petals (smaller, on top) -->
  <path d="M 256 130 Q 240 120 235 155 Q 238 165 245 170 Q 253 175 251 150 Q 250 135 256 130 Z" 
        fill="url(#artichoke-petal)" 
        stroke="#556B2F" 
        stroke-width="1"/>
  <path d="M 256 130 Q 272 120 277 155 Q 274 165 267 170 Q 259 175 261 150 Q 262 135 256 130 Z" 
        fill="url(#artichoke-petal)" 
        stroke="#556B2F" 
        stroke-width="1"/>
  <path d="M 256 130 Q 250 115 248 145 Q 249 152 253 156 Q 258 160 255 140 Q 254 130 256 130 Z" 
        fill="url(#artichoke-petal)" 
        stroke="#556B2F" 
        stroke-width="1"/>
  
  <!-- Artichoke texture (lines on petals) -->
  <g stroke="#556B2F" stroke-width="1" opacity="0.4">
    <line x1="210" y1="185" x2="230" y2="195"/>
    <line x1="302" y1="185" x2="282" y2="195"/>
  </g>
</svg>