<svg xmlns="http://www.w3.org/2000/svg" viewBox="0 0 512 512" width="512" height="512">
  <defs>
    <linearGradient id="corn-cob" x1="0" y1="0" x2="0" y2="1">
      <stop offset="0%" stop-color="#FFD700" />
      <stop offset="50%" stop-color="#FFA500" />
      <stop offset="100%" stop-color="#FF8C00" />
    </linearGradient>
    <radialGradient id="corn-kernel" cx="0.5" cy="0.5" r="0.5">
      <stop offset="0%" stop-color="#FFE5B4" />
      <stop offset="50%" stop-color="#FFD700" />
      <stop offset="100%" stop-color="#FFA500" />
    </radialGradient>
    <linearGradient id="corn-husk" x1="0" y1="0" x2="1" y2="1">
      <stop offset="0%" stop-color="#F0FFF0" />
      <stop offset="50%" stop-color="#E0EEE0" />
      <stop offset="100%" stop-color="#C0DCC0" />
    </linearGradient>
    <filter id="corn-shadow">
      <feGaussianBlur stdDeviation="3" result="coloredBlur"/>
      <feOffset in="coloredBlur" dx="2" dy="4"/>
    </filter>
  </defs>
  
  <!-- Corn shadow -->
  <ellipse cx="256" cy="480" rx="50" ry="20" fill="#000000" opacity="0.15" filter="url(#corn-shadow)"/>
  
  <!-- Corn husk (outer leaves) -->
  <path d="M 256 80 Q 220 100 210 150 Q 200 200 220 380 Q 230 420 256 440 Q 282 420 292 380 Q 312 200 302 150 Q 292 100 256 80 Z" 
        fill="url(#corn-husk)" 
        stroke="#C0DCC0" 
        stroke-width="2"
        filter="url(#corn-shadow)"/>
  
  <!-- Corn cob (body) -->
  <ellipse cx="256" cy="280" rx="50" ry="150" fill="url(#corn-cob)" stroke="#FF8C00" stroke-width="2"/>
  
  <!-- Corn kernels (grid pattern) -->
  <g opacity="0.9">
    <ellipse cx="240" cy="220" rx="8" ry="12" fill="url(#corn-kernel)" stroke="#FFA500" stroke-width="1"/>
    <ellipse cx="256" cy="220" rx="8" ry="12" fill="url(#corn-kernel)" stroke="#FFA500" stroke-width="1"/>
    <ellipse cx="272" cy="220" rx="8" ry="12" fill="url(#corn-kernel)" stroke="#FFA500" stroke-width="1"/>
    <ellipse cx="232" cy="250" rx="8" ry="12" fill="url(#corn-kernel)" stroke="#FFA500" stroke-width="1"/>
    <ellipse cx="248" cy="250" rx="8" ry="12" fill="url(#corn-kernel)" stroke="#FFA500" stroke-width="1"/>
    <ellipse cx="264" cy="250" rx="8" ry="12" fill="url(#corn-kernel)" stroke="#FFA500" stroke-width="1"/>
    <ellipse cx="280" cy="250" rx="8" ry="12" fill="url(#corn-kernel)" stroke="#FFA500" stroke-width="1"/>
    <ellipse cx="240" cy="280" rx="8" ry="12" fill="url(#corn-kernel)" stroke="#FFA500" stroke-width="1"/>
    <ellipse cx="256" cy="280" rx="8" ry="12" fill="url(#corn-kernel)" stroke="#FFA500" stroke-width="1"/>
    <ellipse cx="272" cy="280" rx="8" ry="12" fill="url(#corn-kernel)" stroke="#FFA500" stroke-width="1"/>
    <ellipse cx="232" cy="310" rx="8" ry="12" fill="url(#corn-kernel)" stroke="#FFA500" stroke-width="1"/>
    <ellipse cx="248" cy="310" rx="8" ry="12" fill="url(#corn-kernel)" stroke="#FFA500" stroke-width="1"/>
    <ellipse cx="264" cy="310" rx="8" ry="12" fill="url(#corn-kernel)" stroke="#FFA500" stroke-width="1"/>
    <ellipse cx="280" cy="310" rx="8" ry="12" fill="url(#corn-kernel)" stroke="#FFA500" stroke-width="1"/>
    <ellipse cx="240" cy="340" rx="8" ry="12" fill="url(#corn-kernel)" stroke="#FFA500" stroke-width="1"/>
    <ellipse cx="256" cy="340" rx="8" ry="12" fill="url(#corn-kernel)" stroke="#FFA500" stroke-width="1"/>
    <ellipse cx="272" cy="340" rx="8" ry="12" fill="url(#corn-kernel)" stroke="#FFA500" stroke-width="1"/>
  </g>
</svg>