<svg xmlns="http://www.w3.org/2000/svg" viewBox="0 0 512 512">
  <path fill="#bef264" d="M272 96c26.5 0 48-21.5 48-48S298.5 0 272 0s-48 21.5-48 48 21.5 48 48 48zM113.7 32.8C80.8 77.2 64 126.3 64 176c0 53.6 19.5 106.1 57.6 148.9 31.5 35.4 72.8 56.4 118.4 61.1v78c0 26.5 21.5 48 48 48s48-21.5 48-48V385.9c56.8-6.1 106.9-38.3 138-88.7 34.6-56.1 36.8-124.9 6-182l-5.6-10.4c-6.6-12.3-15.5-23.2-26.2-32.1-40.8-33.8-100.9-32.1-139.7 4-13.6 12.6-23.4 29.4-28 47.6-4.6-18.2-14.4-35-28-47.6-38.7-36.1-98.9-37.7-139.7-4-10.7 8.9-19.6 19.8-26.2 32.1l-5.6 10.4z"/>
</svg>
